<svg height="512pt" viewBox="-61 0 512 512" width="512pt" xmlns="http://www.w3.org/2000/svg"><path d="m195 0c-107.402344 0-195 88.601562-195 196 0 42.601562 13.5 83.097656 39.300781 117.300781l155.699219 198.699219 156-199c25.5-33.902344 39-74.398438 39-117 0-107.398438-87.597656-196-195-196zm0 331c-74.398438 0-135-60.601562-135-135 0-74.402344 60.601562-135 135-135s135 60.597656 135 135c0 74.398438-60.601562 135-135 135zm0 0" fill="#ff6a5f"/><path d="m195 0v61c74.398438 0 135 60.597656 135 135 0 74.398438-60.601562 135-135 135v181l156-199c25.5-33.902344 39-74.398438 39-117 0-107.398438-87.597656-196-195-196zm0 0" fill="#e63950"/><path d="m270 196c0-24.8125-20.1875-45-45-45h-30l-30 45 30 45h30c24.8125 0 45-20.1875 45-45zm0 0" fill="#ff6a5f"/><path d="m165 151c-24.8125 0-45 20.1875-45 45s20.1875 45 45 45h30v-90zm0 0" fill="#fff5f5"/></svg>